# xmcd
#
# Track frame offsets:
#	150
#	14070
#	31488
#	53035
#	68692
#	85267
#	101018
#	117026
#
# Disc length: 1807 seconds
#
# Revision: 1
# Processed by: cddbd v1.5.2PL0 Copyright (c) Steve Scherf et al.
# Submitted via: audiograbber 1.83.01
#
DISCID=62070d08
DTITLE=Vasaeleth - Crypt Born and Tethered To Ruin
DYEAR=2009
DGENRE=death metal
TTITLE0=Wrathful Deities
TTITLE1=Figures Of Chained Spirits
TTITLE2=Curse Seeping Through Flesh
TTITLE3=Gateway To The Cemetery Of Being
TTITLE4=Poisoned Tongue
TTITLE5=Spirit Of Notorious Miasmas
TTITLE6=Adorned and Iridescent
TTITLE7=Crypt Born and Tethered To Ruin
EXTD=
EXTT0=
EXTT1=
EXTT2=
EXTT3=
EXTT4=
EXTT5=
EXTT6=
EXTT7=
PLAYORDER=
